# xmcd CD database file
# Copyright (C) 1995-1998 Ti Kan
#
# Track frame offsets:
#	150
#	13161
#	28766
#	40805
#	54911
#	70436
#	81583
#	97086
#
# Disc length: 1525 seconds
#
# Revision: 2
# Processed by: cddbd v1.5.1PL0 Copyright (c) Steve Scherf et al.
# Submitted via: CDex 1.30Release
#
DISCID=6b05f308
DTITLE=County Road 114 - Chasin' Dreams
DYEAR=2005
DGENRE=Country
TTITLE0=Chasin' Whiskey
TTITLE1=Empty Glass
TTITLE2=Ridin' My Thumb To Mexico
TTITLE3=Jambalaya
TTITLE4=Her Good Lovin'
TTITLE5=Folsom Prison
TTITLE6=Smokey Mountain Memories
TTITLE7=Keep Your Hands To Yourself
EXTD=YEAR: 2005 ID3G:   2
EXTT0=
EXTT1=
EXTT2=
EXTT3=
EXTT4=
EXTT5=
EXTT6=
EXTT7=
PLAYORDER=
